<svg width="900" height="700" viewBox="0 0 900 700" fill="none" xmlns="http://www.w3.org/2000/svg"><rect width="900" height="700" rx="48" fill="#081A22"/><rect x="62" y="70" width="776" height="560" rx="34" fill="#0B2029" stroke="#194252"/><circle cx="730" cy="154" r="132" fill="#FF5B5B" fill-opacity="0.12"/><circle cx="202" cy="570" r="190" fill="#00B3A4" fill-opacity="0.14"/><path d="M120 470C214 470 278 430 334 362C390 294 470 258 562 258C614 258 668 276 740 332" stroke="#45D6C6" stroke-width="8" stroke-linecap="round" stroke-dasharray="1 20"/><circle cx="430" cy="322" r="26" fill="#FF5B5B"/><path d="M430 307V338" stroke="white" stroke-width="7" stroke-linecap="round"/><circle cx="430" cy="350" r="4" fill="white"/><rect x="96" y="132" width="194" height="78" rx="24" fill="#102F3B" stroke="#184353"/><text x="126" y="166" fill="#7CA7B0" font-family="Arial" font-size="17">NORMAL FLOW</text><text x="126" y="193" fill="#FFFFFF" font-family="Arial" font-size="24" font-weight="700">Booking → Care</text><rect x="560" y="122" width="238" height="214" rx="32" fill="#101E25" stroke="#3E2C30"/><path d="M642 182H722" stroke="#FF5B5B" stroke-width="16" stroke-linecap="round"/><path d="M682 142V222" stroke="#FF5B5B" stroke-width="16" stroke-linecap="round"/><circle cx="682" cy="182" r="94" stroke="#FF5B5B" stroke-opacity="0.32" stroke-width="3" stroke-dasharray="10 12"/><rect x="108" y="516" width="226" height="74" rx="22" fill="#0F2935" stroke="#194252"/><text x="142" y="560" fill="#D8FFF3" font-family="Arial" font-size="28" font-weight="700">DETECT → STOP</text><rect x="356" y="516" width="206" height="74" rx="22" fill="#0F2935" stroke="#194252"/><text x="407" y="560" fill="#D8FFF3" font-family="Arial" font-size="28" font-weight="700">WARN</text><rect x="588" y="492" width="184" height="98" rx="24" fill="#25171B" stroke="#6B3038"/><text x="620" y="548" fill="#FFFFFF" font-family="Arial" font-size="31" font-weight="700">EMERGENCY</text></svg>