<svg width="900" height="700" viewBox="0 0 900 700" fill="none" xmlns="http://www.w3.org/2000/svg">
<rect width="900" height="700" rx="48" fill="#081A22"/>
<circle cx="690" cy="122" r="160" fill="url(#g1)" fill-opacity="0.32"/>
<circle cx="204" cy="580" r="180" fill="url(#g2)" fill-opacity="0.23"/>
<rect x="56" y="60" width="788" height="580" rx="34" fill="url(#panel)" stroke="#173d49"/>
<rect x="535" y="119" width="252" height="148" rx="26" fill="#0C2631" stroke="#1B4756"/>
<rect x="565" y="151" width="100" height="14" rx="7" fill="#3C6471"/><rect x="565" y="183" width="165" height="16" rx="8" fill="#D9FAF4" fill-opacity="0.92"/><rect x="565" y="215" width="134" height="12" rx="6" fill="#476D78"/>
<rect x="143" y="130" width="288" height="438" rx="34" fill="#0A212B" stroke="#184353"/><circle cx="283" cy="212" r="86" fill="#123646"/><rect x="213" y="326" width="142" height="174" rx="42" fill="#103040"/><rect x="214" y="357" width="144" height="82" rx="24" fill="#1C4958"/>
<circle cx="625" cy="398" r="96" fill="#103241"/><path d="M586 465C594 411 596 351 625 351C654 351 662 412 666 466" stroke="#2FE2C7" stroke-width="14" stroke-linecap="round"/><circle cx="625" cy="360" r="48" fill="#133B4B"/><rect x="581" y="472" width="92" height="64" rx="24" fill="#174556"/>
<path d="M268 211C268 174 296 148 334 148H365C405 148 436 179 436 219V294H268V211Z" fill="#153B4B"/>
<rect x="449" y="492" width="155" height="86" rx="28" fill="#0F2935" stroke="#194252"/><rect x="472" y="523" width="108" height="16" rx="8" fill="#D8FFF3" fill-opacity="0.9"/><rect x="472" y="553" width="72" height="12" rx="6" fill="#4A7580"/><path d="M508 514L521 528L549 500" stroke="#2FE2C7" stroke-width="9" stroke-linecap="round" stroke-linejoin="round"/>
<rect x="110" y="86" width="174" height="78" rx="22" fill="#0C2834" stroke="#194656"/><text x="197" y="118" text-anchor="middle" direction="rtl" fill="#7BA1AB" font-family="IBM Plex Sans Arabic, Arial" font-size="17">الرعاية عن بُعد</text><text x="197" y="145" text-anchor="middle" direction="rtl" fill="#FFFFFF" font-family="IBM Plex Sans Arabic, Arial" font-size="24" font-weight="700">رعاية متصلة</text>
<rect x="704" y="457" width="108" height="108" rx="28" fill="#0F2935" stroke="#194252"/><path d="M758 489V535" stroke="#2FE2C7" stroke-width="10" stroke-linecap="round"/><path d="M735 512H781" stroke="#2FE2C7" stroke-width="10" stroke-linecap="round"/><circle cx="758" cy="512" r="38" stroke="#2FE2C7" stroke-width="4" stroke-dasharray="8 8" opacity="0.5"/><path d="M470 420C522 392 557 389 602 404" stroke="#45D6C6" stroke-width="4" stroke-dasharray="10 10" opacity="0.45"/>
<defs><linearGradient id="g1" x1="690" y1="-38" x2="690" y2="282"><stop stop-color="#00B3A4"/><stop offset="1" stop-color="#45D6C6" stop-opacity="0"/></linearGradient><linearGradient id="g2" x1="204" y1="400" x2="204" y2="760"><stop stop-color="#45D6C6"/><stop offset="1" stop-color="#45D6C6" stop-opacity="0"/></linearGradient><linearGradient id="panel" x1="450" y1="60" x2="450" y2="640"><stop stop-color="#0B2029"/><stop offset="1" stop-color="#0A1C24"/></linearGradient></defs>
</svg>