<svg width="900" height="700" viewBox="0 0 900 700" fill="none" xmlns="http://www.w3.org/2000/svg"><rect width="900" height="700" rx="48" fill="#081A22"/><circle cx="450" cy="280" r="170" fill="#00B3A4" fill-opacity="0.18"/><circle cx="450" cy="280" r="230" stroke="#45D6C6" stroke-opacity="0.15" stroke-width="2" stroke-dasharray="8 12"/><circle cx="450" cy="250" r="72" fill="#D8FFF3" fill-opacity="0.45"/><path d="M345 470C345 359 391 300 450 300C509 300 555 359 555 470" stroke="#D8FFF3" stroke-opacity="0.45" stroke-width="28" stroke-linecap="round"/><path d="M218 493C284 426 335 403 394 414" stroke="#2FE2C7" stroke-width="8" stroke-linecap="round" opacity="0.7"/><path d="M682 493C616 426 565 403 506 414" stroke="#2FE2C7" stroke-width="8" stroke-linecap="round" opacity="0.7"/><circle cx="232" cy="498" r="42" fill="#0F2935" stroke="#194252"/><circle cx="668" cy="498" r="42" fill="#0F2935" stroke="#194252"/><path d="M232 480V516" stroke="#2FE2C7" stroke-width="8" stroke-linecap="round"/><path d="M214 498H250" stroke="#2FE2C7" stroke-width="8" stroke-linecap="round"/><path d="M646 498L662 514L692 484" stroke="#2FE2C7" stroke-width="10" stroke-linecap="round" stroke-linejoin="round"/><text x="450" y="610" text-anchor="middle" direction="rtl" fill="#FFFFFF" font-family="IBM Plex Sans Arabic, Arial" font-size="36" font-weight="700">الإنسان أولًا</text></svg>